<svg width="246" height="72" viewBox="0 0 246 72" fill="none" xmlns="http://www.w3.org/2000/svg">
<path fill-rule="evenodd" clip-rule="evenodd" d="M35.746 0.92122C21.065 4.38122 8.546 18.1012 7.189 32.2162C6.809 36.1752 6.027 37.8752 3.356 40.5462C0.186001 43.7162 0 44.2902 0 50.9182C0 55.1052 0.586999 59.0702 1.456 60.7502C4.252 66.1562 14.88 68.8352 18.345 65.0062C19.683 63.5272 20 60.9742 20 51.6612C20 41.7742 19.741 39.9112 18.171 38.4902C17.165 37.5802 15.304 36.8352 14.035 36.8352C11.868 36.8352 11.767 36.5552 12.36 32.2292C13.623 23.0122 20.779 13.5772 30.205 8.69922C36.641 5.36922 49.591 4.92322 57.147 7.77222C67.715 11.7572 75.911 21.7022 77.597 32.5852C78.215 36.5752 78.11 36.8362 75.878 36.8502C70.986 36.8822 70.523 37.9752 70.163 50.3392C69.759 64.2072 70.788 66.8352 76.622 66.8352C81.511 66.8352 86.791 64.1402 88.544 60.7502C89.412 59.0722 90 55.1062 90 50.9332C90 44.3052 89.82 43.7552 86.636 40.6332C83.896 37.9482 83.182 36.3742 82.79 32.1602C81.826 21.8072 73.047 9.41023 63.151 4.42623C54.869 0.255225 44.304 -1.09578 35.746 0.92122ZM40.48 27.0272C40.193 27.7732 40.081 38.0422 40.229 49.8472C40.477 69.4562 40.653 71.3382 42.269 71.6492C43.925 71.9672 44.021 70.5412 43.769 49.2452C43.567 32.1392 43.19 26.3972 42.251 26.0852C41.563 25.8562 40.767 26.2802 40.48 27.0272ZM122.362 33.3352C121.486 35.6162 122.711 37.8352 124.846 37.8352C127.326 37.8352 129.204 35.5302 128.41 33.4622C127.626 31.4182 123.133 31.3242 122.362 33.3352ZM172 36.8702C172 41.5382 171.859 41.8302 170.066 40.8702C167.253 39.3652 161.776 39.6032 159.299 41.3382C158.119 42.1652 156.633 44.4162 155.998 46.3422C152.872 55.8142 160.881 64.5352 168.991 60.4892C170.646 59.6642 172 59.4042 172 59.9122C172 60.4192 173.35 60.8352 175 60.8352H178V46.3352V31.8352H175C172.064 31.8352 172 31.9422 172 36.8702ZM48.07 34.7052C47.462 35.8402 47 42.5132 47 50.1472C47 61.1652 47.284 63.8262 48.576 64.8982C51.315 67.1712 51.968 64.1632 51.985 49.2072C51.997 38.1622 51.688 34.8212 50.57 33.8932C49.428 32.9452 48.924 33.1092 48.07 34.7052ZM103 46.8352V60.8352H111.5C119.9 60.8352 120 60.8062 120 58.3352C120 55.9712 119.7 55.8352 114.5 55.8352H109V44.3352V32.8352H106H103V46.8352ZM32.626 38.3682C31.675 40.8462 31.908 58.1422 32.914 59.7312C33.41 60.5132 34.516 60.8512 35.432 60.4992C36.834 59.9612 37.026 58.2762 36.783 48.6162C36.545 39.1642 36.239 37.3092 34.876 37.0482C33.983 36.8772 32.97 37.4712 32.626 38.3682ZM122.511 47.0852C122.897 58.6102 122.07 63.8352 119.861 63.8352C118.543 63.8352 118 64.5642 118 66.3352C118 68.5032 118.444 68.8352 121.345 68.8352C127.206 68.8352 128 66.8882 128 52.5062V39.8352H125.134H122.268L122.511 47.0852ZM132.015 47.5852C132.033 57.1342 133.348 60.0362 138.207 61.2452C141.073 61.9582 142.419 61.7912 144.432 60.4722C145.844 59.5462 147 59.2492 147 59.8122C147 60.3752 148.125 60.8352 149.5 60.8352H152V50.3352V39.8352H149.5C147.099 39.8352 147 40.0832 147 46.1122C147 52.8652 145.202 56.8352 142.143 56.8352C138.938 56.8352 138 54.6392 138 47.1352V39.8352H135H132L132.015 47.5852ZM181 42.3352C181 44.6372 181.362 44.8352 185.566 44.8352H190.133L185.566 50.6472C183.055 53.8442 181 57.4442 181 58.6472C181 60.7262 181.423 60.8352 189.5 60.8352C197.257 60.8352 198 60.6652 198 58.8872C198 57.2572 197.185 56.8902 193.003 56.6372L188.007 56.3352L192.465 50.8352C195.266 47.3802 196.938 44.3132 196.962 42.5852L197 39.8352H189C181.133 39.8352 181 39.8772 181 42.3352ZM203.111 42.3952C197.157 47.4052 198.455 57.4562 205.432 60.3712C210.089 62.3172 212.87 62.2122 216.58 59.9502C226.104 54.1412 221.78 39.8352 210.5 39.8352C207.295 39.8352 205.354 40.5082 203.111 42.3952ZM225 50.3352V60.8352H227.5C229.86 60.8352 230 60.5312 230 55.4002C230 47.5942 231.271 44.8352 234.868 44.8352C238.451 44.8352 239 46.1092 239 54.4172V60.8352H242.103H245.205L244.853 52.4392C244.579 45.9272 244.073 43.5722 242.595 41.9392C240.509 39.6362 235.23 39.1062 231.934 40.8702C230.601 41.5842 230 41.5842 230 40.8702C230 40.3012 228.875 39.8352 227.5 39.8352H225V50.3352ZM55.451 42.1012C55.149 42.8892 55.036 46.6392 55.201 50.4342C55.432 55.7692 55.84 57.3352 57 57.3352C58.207 57.3352 58.5 55.7892 58.5 49.4182C58.5 43.9762 58.11 41.3722 57.251 41.0852C56.563 40.8562 55.754 41.3132 55.451 42.1012ZM214 45.8352C217.926 49.7612 215.708 56.8352 210.551 56.8352C207.424 56.8352 205.6 54.3632 205.6 50.1242C205.6 44.4292 210.23 42.0652 214 45.8352ZM25.426 46.1672C24.413 48.8062 25.408 53.3352 27 53.3352C28.078 53.3352 28.5 52.2332 28.5 49.4182C28.5 45.4522 26.509 43.3462 25.426 46.1672ZM62.426 46.1672C61.413 48.8062 62.408 53.3352 64 53.3352C65.078 53.3352 65.5 52.2332 65.5 49.4182C65.5 45.4522 63.509 43.3462 62.426 46.1672ZM171.148 47.2612C173.542 52.5142 169.611 57.7782 164.692 55.9082C159.124 53.7912 161.027 44.8352 167.044 44.8352C169.248 44.8352 170.336 45.4782 171.148 47.2612Z" fill="#FB5607"/>
</svg>
